<svg xmlns="http://www.w3.org/2000/svg" width="30" height="30" viewBox="0 0 30 30"><g><g><path fill="#fff" d="M15.009-.01c8.283 0 14.998 6.716 14.998 15 0 8.284-6.715 15-14.998 15-8.284 0-15-6.716-15-15 0-8.284 6.716-15 15-15zm-3.276 14.895h1.257v6.199h2.79v-6.2h1.973l.535-2.302h-2.623s-.204-.96.185-1.317c.2-.184.559-.325 1.02-.325.47 0 .845.239 1.319.5l.565-2.029c-.87-.233-1.426-.519-2.333-.519-.885 0-1.395.134-1.974.402-.578.27-.841.745-1.057 1.171-.215.427-.323.948-.323 1.814v.303h-1.296z"/></g></g></svg>