<svg xmlns="http://www.w3.org/2000/svg" width="30" height="30" viewBox="0 0 30 30"><g><g><path fill="#fff" d="M17.927 14.991a2.926 2.926 0 1 1-5.853 0 2.926 2.926 0 0 1 5.853 0zm4.22-3.549c.043.926.052 1.204.052 3.55 0 2.344-.009 2.623-.051 3.547-.039.857-.182 1.322-.302 1.632-.16.41-.35.7-.657 1.01a2.75 2.75 0 0 1-1.01.656c-.31.12-.774.263-1.63.303-.927.042-1.204.05-3.55.05-2.345 0-2.622-.008-3.548-.05-.856-.04-1.321-.182-1.63-.303-.41-.161-.703-.35-1.01-.656-.308-.31-.498-.6-.658-1.01-.12-.31-.263-.775-.302-1.632-.042-.924-.051-1.203-.051-3.548 0-2.345.009-2.623.051-3.549.04-.855.182-1.32.302-1.63.16-.412.35-.702.657-1.011.308-.306.6-.495 1.01-.657.31-.119.775-.262 1.63-.302.927-.04 1.204-.05 3.55-.05 2.344 0 2.622.01 3.548.05.857.04 1.321.183 1.63.302.41.162.703.351 1.01.657.308.309.498.6.658 1.01.12.31.263.776.302 1.631zm-2.638 3.55a4.509 4.509 0 0 0-4.51-4.51 4.509 4.509 0 1 0 0 9.018 4.51 4.51 0 0 0 4.51-4.509zm1.232-4.687c0-.582-.472-1.056-1.054-1.056a1.055 1.055 0 0 0 0 2.109c.582 0 1.054-.473 1.054-1.053zM30 14.99c0 8.284-6.715 14.998-15 14.998-8.284 0-15-6.714-15-14.998C0 6.707 6.715-.01 15-.01c8.285 0 15 6.717 15 15.001zm-6.217 0c0-2.386-.01-2.684-.054-3.62-.042-.935-.19-1.575-.407-2.132a4.313 4.313 0 0 0-1.013-1.556 4.312 4.312 0 0 0-1.556-1.013c-.559-.218-1.197-.365-2.132-.407-.936-.043-1.235-.054-3.62-.054-2.386 0-2.685.01-3.621.054-.935.042-1.573.19-2.132.407a4.314 4.314 0 0 0-1.555 1.013c-.489.488-.789.98-1.013 1.556-.218.557-.366 1.197-.409 2.132-.042.936-.052 1.234-.052 3.62s.01 2.685.052 3.621c.043.935.191 1.575.409 2.132A4.31 4.31 0 0 0 7.692 22.3c.488.488.978.787 1.555 1.013.559.218 1.197.365 2.132.407.936.043 1.235.054 3.62.054 2.386 0 2.685-.01 3.621-.054.935-.042 1.573-.19 2.132-.407a4.316 4.316 0 0 0 1.556-1.013 4.316 4.316 0 0 0 1.013-1.556c.216-.557.365-1.197.407-2.132.044-.936.054-1.235.054-3.62z"/></g></g></svg>