<svg xmlns="http://www.w3.org/2000/svg" width="30" height="30" viewBox="0 0 30 30"><g><g><path fill="#fff" d="M29.997 14.996c0 8.283-6.715 14.997-15 14.997-8.283 0-14.999-6.714-14.999-14.997 0-8.285 6.715-15 15-15 8.284 0 15 6.715 15 15zM15.45 20.96s.347-.038.524-.23c.164-.176.159-.505.159-.505s-.023-1.543.693-1.769c.706-.224 1.613 1.492 2.573 2.149.726.5 1.279.391 1.279.391l2.569-.036s1.343-.084.707-1.14c-.052-.086-.372-.78-1.91-2.21-1.612-1.495-1.396-1.254.545-3.84 1.18-1.575 1.654-2.537 1.506-2.95-.14-.39-1.01-.288-1.01-.288l-2.892.02s-.215-.03-.374.065c-.156.093-.255.31-.255.31s-.459 1.219-1.068 2.256c-1.289 2.186-1.804 2.302-2.014 2.167-.49-.316-.367-1.272-.367-1.95 0-2.12.32-3.004-.626-3.232-.315-.075-.547-.125-1.35-.136-1.033-.008-1.906.005-2.4.248-.33.16-.584.519-.429.54.191.025.624.118.854.43.296.402.285 1.31.285 1.31s.17 2.494-.397 2.802c-.39.213-.925-.22-2.073-2.205-.589-1.015-1.033-2.14-1.033-2.14s-.085-.21-.238-.323c-.186-.136-.445-.18-.445-.18l-2.748.018s-.413.014-.564.192c-.135.16-.01.491-.01.491s2.15 5.034 4.587 7.57c1.981 2.064 4.2 2.177 4.669 2.177h.242z"/></g></g></svg>