<svg xmlns="http://www.w3.org/2000/svg" width="52" height="71" viewBox="0 0 52 71"><g><g><path fill="#fff" d="M26.674 6.999v2.379a.887.887 0 1 1-1.775 0v-2.38a.887.887 0 0 1 1.775 0zm-26.68 59.2V15.737a4.799 4.799 0 0 1 4.795-4.793h4.443a6.067 6.067 0 0 1 6.032-5.476h2.2c.822 0 1.548-.454 1.85-1.156A7.033 7.033 0 0 1 25.787.045a7.033 7.033 0 0 1 6.473 4.268c.301.702 1.029 1.156 1.85 1.156h2.2a6.067 6.067 0 0 1 6.031 5.476h4.444a4.799 4.799 0 0 1 4.795 4.793v50.46a4.8 4.8 0 0 1-4.795 4.794H4.789a4.8 4.8 0 0 1-4.795-4.794zm10.984-51.64h29.618v-3.032a4.29 4.29 0 0 0-4.286-4.284h-2.2c-1.532 0-2.9-.876-3.481-2.232a5.263 5.263 0 0 0-4.842-3.193 5.263 5.263 0 0 0-4.842 3.193c-.58 1.356-1.947 2.232-3.481 2.232h-2.2a4.29 4.29 0 0 0-4.286 4.284zm-9.209 51.64a3.023 3.023 0 0 0 3.02 3.019h41.996a3.023 3.023 0 0 0 3.02-3.02v-50.46a3.022 3.022 0 0 0-3.02-3.019H42.37v2.726c0 .49-.397.887-.888.887H10.09a.887.887 0 0 1-.887-.887V12.72H4.79a3.022 3.022 0 0 0-3.02 3.019zm7.434-40.103c0-.49.397-.887.887-.887h31.393a.887.887 0 1 1 0 1.774H10.09a.887.887 0 0 1-.887-.887zm0 8.447c0-.49.397-.886.887-.886h31.393a.886.886 0 1 1 0 1.773H10.09a.888.888 0 0 1-.887-.887zm0 8.449c0-.49.397-.888.887-.888h31.393a.888.888 0 0 1 0 1.774H10.09a.887.887 0 0 1-.887-.886zm0 8.447c0-.49.397-.887.887-.887h31.393a.887.887 0 1 1 0 1.773H10.09a.887.887 0 0 1-.887-.886zm0 8.448c0-.49.397-.887.887-.887h31.393a.887.887 0 1 1 0 1.774H10.09a.887.887 0 0 1-.887-.887z"/></g></g></svg>