<svg xmlns="http://www.w3.org/2000/svg" width="70" height="70" viewBox="0 0 70 70"><g><g><path fill="#fff" d="M52.65 68.945v-4.378h-6.43v4.378a.876.876 0 0 1-.876.873H.752a.878.878 0 0 1-.81-.541.87.87 0 0 1 .193-.953l4.703-4.635C1.868 62.255-.077 59.26-.1 55.915L-.124 7.637v-.116c0-4.152 3.4-7.53 7.58-7.53h6.489c.484 0 .876.391.876.873V13H61.2c4.804 0 8.738 3.88 8.769 8.652l.025.674c0 .007-.003.01-.003.016s.003.01.003.015v38.72c0 4.819-3.948 8.741-8.8 8.741h-7.669a.876.876 0 0 1-.876-.873zm15.592-41.359a8.812 8.812 0 0 1-7.047 3.51h-6.792v36.976h6.792c3.886 0 7.047-3.138 7.047-6.995zM1.63 7.52v.117C1.629 10.594 4.045 13 7.015 13h6.053V1.738H7.456c-3.213 0-5.827 2.594-5.827 5.782zm42.838 19.549l-4.927 4.859.827.823a.87.87 0 0 1-.62 1.49.878.878 0 0 1-.62-.255l-.833-.83-3.002 2.96.847.844a.872.872 0 0 1-.62 1.491.879.879 0 0 1-.62-.256l-.853-.85-3.002 2.96.868.866a.87.87 0 0 1 0 1.233.874.874 0 0 1-.62.256.874.874 0 0 1-.62-.256l-.874-.872-3.003 2.961.89.888a.87.87 0 0 1-.62 1.488.877.877 0 0 1-.62-.254l-.895-.893-3.003 2.96.91.907a.87.87 0 0 1 0 1.234.877.877 0 0 1-1.239 0l-.916-.912-3.003 2.961.931.927a.873.873 0 1 1-.62 1.489.872.872 0 0 1-.619-.256l-.937-.932-3.003 2.96.952.948a.87.87 0 0 1 0 1.235.877.877 0 0 1-1.24 0l-.958-.955-3.002 2.961.973.968a.875.875 0 1 1-1.24 1.235l-.979-.975-5.674 5.595h41.584zm8.183 35.753V30.224c0-.482.392-.872.876-.872h7.669c3.883 0 7.042-3.134 7.047-6.986l-.025-.677c-.025-3.84-3.173-6.943-7.016-6.943H7.015a7.126 7.126 0 0 1-5.384-2.456l.023 43.62c.019 2.88 1.834 5.43 4.534 6.446l38.54-38a.876.876 0 1 1 1.493.62v37.846zM38.747 51.949v6.996a3.443 3.443 0 0 1-3.445 3.431h-7.095c-1.424 0-2.645-.814-3.187-2.126a3.368 3.368 0 0 1 .762-3.744l7.095-6.996a3.405 3.405 0 0 1 3.751-.728c1.307.544 2.12 1.756 2.12 3.167zm-1.753 0a1.64 1.64 0 0 0-1.04-1.556 1.657 1.657 0 0 0-1.843.359l-7.095 6.995a1.632 1.632 0 0 0-.374 1.838c.27.655.855 1.046 1.565 1.046h7.095c.933 0 1.692-.757 1.692-1.686z"/></g></g></svg>