<svg xmlns="http://www.w3.org/2000/svg" width="69" height="69" viewBox="0 0 69 69"><g><g><path fill="#fff" d="M69 61.505C69 65.637 65.64 69 61.51 69H24.713c-4.13 0-7.49-3.362-7.49-7.494 0-3.84 2.903-7.01 6.628-7.44v-5.452c0-.477.385-.862.862-.862h2.046V36.834c0-2.637.627-5.124 1.713-7.348l-15.238-19.7-4.858 37.927L17.38 67.75a.861.861 0 0 1-.786 1.216h-5.472C4.989 68.967 0 63.975 0 57.84v-9.994c0-.025.012-.047.015-.072.001-.023-.007-.046-.003-.069L7.267 3.528c.014-.091.024-.184.045-.275l.002-.017c.003-.015.012-.027.016-.042C7.775 1.366 9.414 0 11.377 0c.954 0 1.823.333 2.528.874.029.02.063.027.09.052L37.24 21.26a16.705 16.705 0 0 1 6.217-1.241 5.72 5.72 0 0 1 5.68-5.12 5.72 5.72 0 0 1 5.68 5.115h5.304c.477 0 .862.386.862.862v26.874H62.1c.477 0 .862.385.862.862v5.543C66.4 54.835 69 57.87 69 61.506zm-23.788-41.49h7.852c-.292-1.914-1.933-3.39-3.927-3.39-1.993 0-3.634 1.476-3.925 3.39zm-16.73 16.82V47.75h30.777V21.74h-15.69c-8.32 0-15.087 6.771-15.087 15.094zM6.93 48.706H1.724v9.132c0 5.185 4.216 9.404 9.398 9.404h4.14zm4.75-40.383c-.102.008-.2.032-.304.032a4.16 4.16 0 0 1-2.955-1.23L1.876 46.982H6.73zm2.149-4.146c0-1.354-1.101-2.453-2.453-2.453-1.152 0-2.114.8-2.376 1.873l-.046.284c-.012.098-.03.195-.03.296 0 1.353 1.1 2.453 2.452 2.453 1.353 0 2.453-1.1 2.453-2.453zm15.554 23.668a16.92 16.92 0 0 1 6.153-5.783L15.516 4.548a4.169 4.169 0 0 1-1.779 3.07zm-3.81 26.165h35.664v-4.535H25.574zm4.904 7.495a5.773 5.773 0 0 0-5.766-5.768 5.774 5.774 0 0 0-5.766 5.768 5.775 5.775 0 0 0 5.766 5.77 5.774 5.774 0 0 0 5.766-5.77zm26.258 5.77a7.483 7.483 0 0 1 0-11.538h-27.25a7.483 7.483 0 0 1 0 11.537zm10.54-5.77a5.773 5.773 0 0 0-5.765-5.768 5.773 5.773 0 0 0-5.766 5.768 5.774 5.774 0 0 0 5.766 5.77 5.774 5.774 0 0 0 5.765-5.77zM32.89 36.646c0-5.954 4.842-10.797 10.791-10.797h10.304c.477 0 .863.385.863.862v17.001a.862.862 0 0 1-.863.863H33.753a.862.862 0 0 1-.862-.863zm1.724 6.204h18.51V27.574h-9.443c-5 0-9.067 4.07-9.067 9.072zm13.66-31.015v-2.8a.862.862 0 1 1 1.725 0v2.8a.862.862 0 1 1-1.725 0zm4.317 1.6a.862.862 0 0 1 0-1.22l1.98-1.98a.862.862 0 1 1 1.219 1.22l-1.98 1.98a.86.86 0 0 1-1.22 0zm-10.107-1.98a.863.863 0 0 1 1.22-1.22l1.978 1.98a.862.862 0 1 1-1.219 1.22z"/></g></g></svg>