<svg xmlns="http://www.w3.org/2000/svg" width="71" height="71" viewBox="0 0 71 71"><g><g><path fill="#fff" d="M.887 8H3.64V.886c0-.49.397-.887.887-.887h23.737c.49 0 .887.396.887.887v7.112h2.751c.49 0 .888.397.888.888v10.948c0 .49-.398.887-.888.887h-2.75v5.682c0 9.36 6.733 16.417 15.662 16.417h3.946v-3.484c0-.491.397-.888.888-.888h11.9c.49 0 .888.397.888.888v3.484h7.677c.49 0 .888.397.888.887V65.97c0 .49-.397.888-.888.888h-7.677v3.255c0 .49-.398.887-.888.887h-11.9a.887.887 0 0 1-.888-.887v-3.255H43.01C20.933 66.857 3.64 49.307 3.64 26.9v-6.178H.887A.887.887 0 0 1 0 19.835V8.887c0-.49.397-.888.887-.888zm26.488-6.226H5.414V8h21.961zm-14.91 17.173V9.774H8.157v9.173zm7.859-9.173v9.173h4.308V9.774zm-1.775 0H14.24v9.173h4.309zm12.465 0h-4.607v9.173h4.607zm29.646 42.91H50.534v4.309H60.66zM50.534 50.91H60.66v-4.308H50.534zm10.126 7.859H50.534v4.307H60.66zM50.534 40.224v4.602H60.66v-4.602zm18.691 24.858V44.596h-6.79v20.486zm-8.565 4.143V64.85H50.534v4.375zM5.414 26.9c0 21.41 16.514 38.182 37.596 38.182h5.75V44.596h-3.947c-9.941 0-17.438-7.82-17.438-18.192v-5.682H5.414zm-3.639-7.953h4.607V9.774H1.775z"/></g></g></svg>