<svg xmlns="http://www.w3.org/2000/svg" width="69" height="70" viewBox="0 0 69 70"><g><g><path fill="#fff" d="M68.993 13.29v6.89c0 2.25-1.51 4.162-3.671 4.654l-27.633 6.291c-1.368.312-2.324 1.523-2.324 2.946v4.139h6.305c.477 0 .863.392.863.875v6.61a.869.869 0 0 1-.863.876h-1.33l.692 16.774c.001 3.687-2.929 6.657-6.53 6.657-3.6 0-6.53-2.97-6.53-6.621l.693-16.81h-1.33a.869.869 0 0 1-.862-.875v-6.611c0-.483.386-.875.862-.875h6.306v-4.14c0-2.247 1.51-4.161 3.671-4.652l27.633-6.292c1.368-.31 2.324-1.522 2.324-2.945v-6.89c0-1.665-1.335-3.019-2.975-3.019h-2.522v5.097c0 1.887-1.514 3.425-3.376 3.425H9.104c-1.862 0-3.376-1.538-3.376-3.425V13.44H3.36c-1.846 0-3.347-1.524-3.347-3.395v-1.3c0-1.87 1.501-3.393 3.347-3.393h2.368V3.427C5.728 1.537 7.242 0 9.104 0h49.292c1.862 0 3.376 1.537 3.376 3.427v5.094h2.522c2.59 0 4.7 2.14 4.7 4.77zm-63.266-1.6V7.104H3.36c-.895 0-1.623.737-1.623 1.643v1.3c0 .906.728 1.643 1.623 1.643zm54.32-8.263c0-.924-.74-1.677-1.65-1.677H9.103c-.911 0-1.652.753-1.652 1.677V15.37c0 .923.741 1.674 1.652 1.674h49.292c.91 0 1.651-.75 1.651-1.674zM38.615 46.571H30.39l-.695 16.847c.001 2.648 2.157 4.833 4.807 4.833 2.65 0 4.805-2.185 4.805-4.87zm2.193-6.61h-12.61v4.86h12.61z"/></g></g></svg>