<svg xmlns="http://www.w3.org/2000/svg" width="69" height="70" viewBox="0 0 69 70"><g><g><path fill="#fff" d="M32.165 56.552c0-.484.386-.875.863-.875h3.25c.476 0 .861.391.861.875a.868.868 0 0 1-.862.875h-3.25a.868.868 0 0 1-.862-.875zm-15.454 0a.868.868 0 0 1-.862.875H12.6a.868.868 0 0 1-.862-.875c0-.484.385-.875.862-.875h3.25c.477 0 .862.391.862.875zm40.857 0a.868.868 0 0 1-.863.875h-3.25a.868.868 0 0 1-.861-.875c0-.484.385-.875.862-.875h3.25c.476 0 .862.391.862.875zM37.14 43.933a.868.868 0 0 1-.863.876h-3.25a.868.868 0 0 1-.862-.876c0-.482.386-.874.863-.874h3.25c.476 0 .861.392.861.874zm-25.403 0c0-.482.385-.874.862-.874h3.25c.477 0 .862.392.862.874a.868.868 0 0 1-.862.876H12.6a.868.868 0 0 1-.862-.876zm40.857 0c0-.482.385-.874.862-.874h3.25c.476 0 .862.392.862.874a.868.868 0 0 1-.863.876h-3.25a.868.868 0 0 1-.861-.876zm16.4-12.667v6.322a.869.869 0 0 1-.862.876h-1.75v24.083a.869.869 0 0 1-.862.875h-1.636l-.93 5.828a.866.866 0 0 1-.851.735h-6.962a.866.866 0 0 1-.852-.735l-.93-5.828H15.624l-.93 5.828a.866.866 0 0 1-.85.735H6.88a.866.866 0 0 1-.852-.735l-.93-5.828H3.745a.869.869 0 0 1-.862-.875V38.464H.876a.869.869 0 0 1-.863-.876v-6.322c0-.484.386-.876.863-.876h27.756v-1.474c0-1.63 1.307-2.956 2.912-2.956l-1.25-7.792a3.929 3.929 0 0 1 .372-2.002h-6.759a.86.86 0 0 1-.634-.283.886.886 0 0 1-.224-.668L24.264.785a.867.867 0 0 1 .859-.8H44.15c.448 0 .821.347.86.8l1.214 14.43a.886.886 0 0 1-.224.668.86.86 0 0 1-.635.283h-6.755c.281.58.425 1.239.378 1.923l-1.26 7.871c1.606 0 2.913 1.327 2.913 2.956v1.474h27.49c.476 0 .862.392.862.876zM24.846 14.414h19.581L43.36 1.734H25.914zm8.38 1.752c-.352 0-.61.2-.765.368-.323.352-.493.888-.455 1.431l1.285 7.995h2.691l1.296-8.073c.028-.465-.142-1.002-.465-1.353-.155-.169-.413-.368-.766-.368zm-2.87 14.224h8.561v-1.474a1.2 1.2 0 0 0-1.188-1.207h-6.184a1.2 1.2 0 0 0-1.188 1.207zm-25.75 8.074v10.972h18.44V38.464zm39.632 10.972V38.464H24.77v10.972zm-19.468 1.75V61.67h19.468V51.187zM4.606 61.67h18.44V51.187H4.605zm9.27 1.752h-7.03l.769 4.813h5.493zm48.26 0h-7.029l.768 4.813h5.494zm2.522-1.752V51.187H45.962V61.67zm0-23.206H45.962v10.972h18.696zm2.612-6.323H1.738v4.572H67.27z"/></g></g></svg>