<svg xmlns="http://www.w3.org/2000/svg" width="102" height="42" viewBox="0 0 102 42"><g><g><path fill="#fff" d="M97.42 13.018h.19v-1.893H102v21.383h-4.39v-2.651h-.19c-1.867 1.653-4.29 2.651-6.94 2.651-5.903 0-10.688-4.956-10.688-11.07 0-6.115 4.785-11.073 10.688-11.073 2.65 0 5.073 1 6.94 2.653zm-6.54 1.395c-3.663 0-6.631 3.257-6.631 7.024s2.968 7.025 6.63 7.025 6.63-3.258 6.63-7.025c0-3.767-2.968-7.024-6.63-7.024zM40.933 41.926c-5.112 0-8.176-3.457-9.336-6.272l4.024-1.682c.726 1.737 2.484 3.886 5.312 3.886 3.272 0 5.378-2.034 5.6-5.684.048-.794.02-1.63.02-2.43a8.937 8.937 0 0 1-6.483 2.78c-4.195 0-7.72-2.894-8.72-6.812-.436-1.711-.283-4.827-.283-6.51v-8.077h4.39v9.335c0 1.741-.185 3.248.682 4.843.945 1.74 2.786 3.157 4.89 3.157 2.61 0 4.79-1.998 5.388-4.488.178-.742.135-1.38.135-2.136v-10.71h4.39V29.35c0 .825.014 1.64-.027 2.46-.357 7.156-4.786 10.115-9.982 10.115zm18.532-30.8v1.892h.189c1.867-1.654 4.29-2.653 6.94-2.653 5.903 0 10.688 4.958 10.688 11.072 0 6.115-4.785 11.071-10.688 11.071-2.65 0-5.073-.998-6.94-2.651h-.19V41.92h-4.39V11.125zm.1 10.311c0 3.767 2.968 7.025 6.63 7.025s6.63-3.258 6.63-7.025c0-3.767-2.968-7.024-6.63-7.024s-6.63 3.257-6.63 7.024zM27.952 5.281l-2.907 2.931a11.594 11.594 0 0 0-8.433-3.633c-6.426 0-11.715 5.337-11.715 11.773 0 6.434 5.289 11.772 11.715 11.772 3.316 0 6.309-1.396 8.433-3.635l2.907 2.932c-2.933 3.163-7.107 5.14-11.74 5.14-8.875 0-16.07-7.257-16.07-16.21 0-8.953 7.195-16.21 16.07-16.21 4.633 0 8.807 1.977 11.74 5.14z"/></g></g></svg>