<svg xmlns="http://www.w3.org/2000/svg" width="53" height="60" viewBox="0 0 53 60"><g><g><path fill="#f0502b" d="M28.26 54.319l20.375-14.044-11.688-8.055-8.687 5.988zm-3.64-16.111l-8.687-5.988-11.687 8.055L24.62 54.32zm28.261-16.971l-12.71 8.761 12.71 8.761v3.032l-26.44 18.205L-.002 41.791V18.205L26.439-.002l26.442 18.207zM12.71 29.998l-9.072-6.253V36.25zm24.237-2.222l11.688-8.055L28.26 5.677V21.79zM4.245 19.721l11.688 8.055 8.688-5.987V5.677zm22.195 5.256l-7.284 5.021 7.284 5.021L33.725 30z"/></g></g></svg>