<svg xmlns="http://www.w3.org/2000/svg" width="33" height="32" viewBox="0 0 33 32"><g><g><path fill="#fff" d="M32.457 15.773c0 8.714-7.14 15.777-15.949 15.777-2.68 0-5.204-.657-7.42-1.811L0 32.103l2.791-8.282A15.567 15.567 0 0 1 .56 15.773C.56 7.06 7.7-.004 16.51-.004c8.807 0 15.948 7.064 15.948 15.777zm-5.774 5.25c-.736-1.376-3.452-2.95-3.452-2.95-.614-.348-1.356-.385-1.706.232 0 0-.883 1.047-1.107 1.198-1.025.686-1.975.66-2.933-.289l-2.228-2.203-2.228-2.203c-.959-.95-.985-1.889-.29-2.903.151-.222 1.21-1.095 1.21-1.095.624-.347.585-1.08.234-1.688 0 0-1.591-2.687-2.983-3.414a1.536 1.536 0 0 0-1.792.267l-.984.972c-3.12 3.087-1.584 6.573 1.537 9.66l5.704 5.643c3.121 3.088 6.644 4.608 9.765 1.521l.984-.974a1.497 1.497 0 0 0 .27-1.773z"/></g></g></svg>