<svg xmlns="http://www.w3.org/2000/svg" width="32" height="33" viewBox="0 0 32 33"><g><g><path fill="#fff" d="M31.225 20.073c-.618 2.324-3.79 5.213-6.31 5.748-3.298.595-6.623.85-9.944.763a.248.248 0 0 0-.176.067l-3.092 3.02-3.29 3.211c-.24.238-.663.077-.663-.253v-6.586a.229.229 0 0 0-.194-.222h-.002c-2.52-.536-5.69-3.424-6.31-5.748a30.072 30.072 0 0 1 0-13.55C1.865 4.2 5.035 1.31 7.555.778a48.575 48.575 0 0 1 17.362 0c2.52.532 5.69 3.422 6.31 5.745a30.04 30.04 0 0 1 0 13.55zm-6.603-1.166c-.509-.426-1.057-.792-1.608-1.165a37.25 37.25 0 0 0-1.71-1.108c-.582-.35-1.273-.344-1.814.075-.553.431-.809 1.256-1.599 1.343-.471.052-.882-.137-1.291-.298-2.558-1.012-4.117-2.892-5.041-5.308-.12-.315-.111-.654.075-.944a1.66 1.66 0 0 1 .391-.392c.17-.133.336-.271.518-.39.75-.484.864-1.353.45-2.065-.673-1.158-1.504-2.208-2.408-3.206-.419-.462-.984-.613-1.557-.351-.734.336-1.412.79-1.938 1.385-.562.633-1.095 1.503-.733 2.343.397.922.787 1.851 1.249 2.743.974 1.884 2.127 3.664 3.6 5.24 2.59 2.773 5.859 4.58 9.411 5.983.343.135.712.21 1.1.322.336-.099.693-.148.992-.3 1.058-.541 1.79-1.387 2.295-2.405.275-.555.107-1.093-.382-1.502zm-4.178-6.376a.455.455 0 0 0 .388-.358c.033-.136.018-.287.005-.429-.184-2.018-1.471-2.903-3.273-3.028-.288-.02-.545.177-.589.427-.049.276.122.515.431.587.285.066.58.044.866.122.225.063.439.157.628.29.4.275.654.695.77 1.15.06.229.082.468.11.705.038.323.231.522.587.533-.084.004-.171.008.05.004.038-.002.042-.004.027-.004zM21.5 9.886c.496.814.71 1.751.712 2.687 0 .142.008.294.056.426.163.447.87.394.993-.05.034-.124.038-.252.046-.308-.019-.304-.03-.534-.048-.764-.008-.092-.031-.184-.046-.277-.321-2.046-1.422-3.58-3.35-4.55-.948-.478-1.978-.697-3.045-.754-.324-.017-.542.187-.556.47-.015.3.157.497.48.539.265.036.533.06.798.102a6.588 6.588 0 0 1 1.756.514A5.163 5.163 0 0 1 21.5 9.886zm4.277 3.736c-.062-.756-.111-1.517-.25-2.261-.815-4.35-4.602-7.277-9.22-7.424.532.015 4.222.112-.062-.002-.09 0-.18-.004-.27 0-.329.017-.621.28-.56.607.074.393.51.413.841.445.525.053 1.056.076 1.574.164 3.446.585 6.206 3.308 6.687 6.601.091.623.124 1.256.172 1.884.024.317.192.614.565.61.36-.005.55-.306.523-.624z"/></g></g></svg>