<?xml version="1.0" encoding="utf-8"?><svg xmlns="http://www.w3.org/2000/svg" xmlns:xlink="http://www.w3.org/1999/xlink"><symbol viewBox="264.2 371 20.3 18.8" id="basket" xmlns="http://www.w3.org/2000/svg"><path class="st0" d="M283.7 378.2h-3.2l-3.4-6.8c-.2-.4-.6-.5-1-.3s-.5.6-.3 1l3.1 6.1h-9.1l3.1-6.1c.2-.4 0-.8-.3-1-.4-.2-.8 0-1 .3l-3.4 6.8H265c-.4 0-.8.3-.8.8 0 .4.3.8.8.8h.2l.9 3c-.2.1-.3.3-.3.6 0 .4.3.7.7.7l1.7 5.8h12.7l1.7-5.8c.4 0 .7-.3.7-.7 0-.2-.1-.5-.3-.6l.9-3h.2c.4 0 .8-.3.8-.8-.4-.5-.7-.8-1.2-.8zm-4.1 10.1h-10.4L268 384h12.9l-1.3 4.3zm1.6-5.8h-13.7l-.8-2.8H282l-.8 2.8z"/></symbol></svg>